<svg xmlns="http://www.w3.org/2000/svg" width="26" height="26" viewBox="0 0 26 26">
    <g id="prefix__Group_263" data-name="Group 263" transform="translate(-321.5 -23)">
        <path id="prefix__Rectangle_288" d="M0 0H26V26H0z" data-name="Rectangle 288" transform="translate(321.5 23)" style="fill:transparent"/>
        <path id="prefix__Shape" d="M15.724.266a.859.859 0 0 0-1.244 0L7.995 6.751 1.51.266a.859.859 0 0 0-1.244 0 .859.859 0 0 0 0 1.244l6.485 6.485L.266 14.48a.859.859 0 0 0 0 1.244.877.877 0 0 0 .622.266.877.877 0 0 0 .622-.266l6.485-6.485 6.485 6.485a.859.859 0 0 0 1.244 0 .859.859 0 0 0 0-1.244L9.239 7.995l6.485-6.485a.859.859 0 0 0 0-1.244z" transform="translate(326.243 28.427)" style="fill:#0086ff"/>
    </g>
</svg>
