<svg xmlns="http://www.w3.org/2000/svg" width="98.193" height="35.386" viewBox="0 0 98.193 35.386">
    <g id="prefix__Logo_2" transform="translate(-.091 -.367)">
        <g id="prefix__Group_2" data-name="Group 2">
            <path id="prefix__Path_2" d="M19.311 0v22.608L0 33.68z" data-name="Path 2" transform="translate(.091 .367)" style="fill:#2c5ff6"/>
            <path id="prefix__Path_3" d="M0 0v22.678l19.931 11.187z" data-name="Path 3" transform="translate(20.928 .367)" style="fill:#28bc23"/>
            <path id="prefix__Path_4" d="M19.906 0L0 11.347h40.292z" data-name="Path 4" transform="translate(.298 24.405)" style="fill:#eea032"/>
        </g>
        <path id="prefix__Vista" d="M39.893 14.142a2.936 2.936 0 0 1-2.215-.844 3.3 3.3 0 0 1-.808-2.372 2.711 2.711 0 0 1 1.107-2.369 6.091 6.091 0 0 1 3.208-.875l1.66-.052v-.142a1.083 1.083 0 0 0-1.212-1.23A7.3 7.3 0 0 0 38.866 7l-.994-2.267a9.6 9.6 0 0 1 4.395-.9 4.29 4.29 0 0 1 2.966.949 3.413 3.413 0 0 1 1.05 2.655v6.53H43.9l-.659-1.319h-.07a3.934 3.934 0 0 1-1.416 1.177 4.68 4.68 0 0 1-1.862.317zm2.971-4.623l-.791.035c-1.126.041-1.7.461-1.7 1.248 0 .607.328.914.976.914a1.558 1.558 0 0 0 1.068-.4 1.317 1.317 0 0 0 .444-1.028v-.77zm-9.994 4.623a3.229 3.229 0 0 1-2.5-.848 3.82 3.82 0 0 1-.765-2.606v-4.1h-1.2v-1.4L29.936 4.1l.887-2.092h2.25v2h2.443v2.575h-2.443v3.876a.842.842 0 0 0 .931.967 5.133 5.133 0 0 0 1.661-.343v2.506a6.774 6.774 0 0 1-1.323.426 7.473 7.473 0 0 1-1.471.127zm-9.869 0a13.631 13.631 0 0 1-1.925-.119 8.249 8.249 0 0 1-1.67-.435v-2.751a10.49 10.49 0 0 0 1.754.58 7.425 7.425 0 0 0 1.7.228c.741 0 1.117-.171 1.117-.509a.579.579 0 0 0-.312-.47 14.3 14.3 0 0 0-1.815-.8 4.55 4.55 0 0 1-1.916-1.279 2.926 2.926 0 0 1-.544-1.814 2.525 2.525 0 0 1 1.072-2.163 5.147 5.147 0 0 1 3.033-.773 7.7 7.7 0 0 1 1.85.215 11.093 11.093 0 0 1 1.8.628l-.936 2.21a10.583 10.583 0 0 0-1.45-.523 4.875 4.875 0 0 0-1.248-.215c-.56 0-.843.139-.843.413a.516.516 0 0 0 .294.435 15.787 15.787 0 0 0 1.7.734 6.572 6.572 0 0 1 1.561.843 2.539 2.539 0 0 1 .756.971 3.433 3.433 0 0 1 .241 1.358 2.845 2.845 0 0 1-1.09 2.417 5.167 5.167 0 0 1-3.13.819zm-5.872-.175h-3.436V4.008h3.437v9.957zm-8.851 0H4.192L0 1.116h3.9l1.751 6.513a19.915 19.915 0 0 1 .6 3.023c.042-.417.126-.935.247-1.538.125-.626.232-1.1.325-1.45L8.6 1.116h3.884l-4.21 12.85zm7.147-10.926c-1.208 0-1.82-.509-1.82-1.512a1.458 1.458 0 0 1 .431-1.151A2.091 2.091 0 0 1 15.425 0a2.089 2.089 0 0 1 1.4.387 1.445 1.445 0 0 1 .44 1.142c-.003 1.003-.621 1.512-1.84 1.512z" transform="translate(52 11.034)" style="fill:#676a6d"/>
    </g>
</svg>
